<?xml version="1.0" standalone="no"?><!DOCTYPE svg PUBLIC "-//W3C//DTD SVG 1.1//EN" "http://www.w3.org/Graphics/SVG/1.1/DTD/svg11.dtd"><svg t="1762326952686" class="icon" viewBox="0 0 1024 1024" version="1.1" xmlns="http://www.w3.org/2000/svg" p-id="4360" xmlns:xlink="http://www.w3.org/1999/xlink" width="200" height="200"><path d="M981.333333 790.826667a256.597333 256.597333 0 0 0-18.346666-89.514667 967.253333 967.253333 0 0 0-22.229334-52.224l-0.682666-1.493333-3.2-7.125334A11459.114667 11459.114667 0 0 0 707.84 162.048l-0.128-0.298667a1671.381333 1671.381333 0 0 0-26.154667-50.346666c-13.952-25.386667-28.16-45.226667-45.354666-61.44a180.522667 180.522667 0 0 0-113.621334-49.92L504.064 0A180.565333 180.565333 0 0 0 386.133333 51.712c-16.256 15.701333-29.909333 34.944-43.52 59.648-7.68 13.952-13.952 26.112-25.941333 49.834667l-1.408 2.816-5.504 10.837333a11538.090667 11538.090667 0 0 0-151.296 310.613333A9360.213333 9360.213333 0 0 0 72.533333 673.450667c-15.104 34.389333-23.637333 60.117333-27.392 87.424a232.277333 232.277333 0 0 0 31.317334 154.026666 227.114667 227.114667 0 0 0 102.058666 89.856c32.682667 14.421333 68.736 20.906667 104.234667 18.773334 44.8-2.389333 89.856-18.176 131.584-44.501334 38.186667-23.850667 72.533333-54.741333 112.768-98.773333h-30.08c36.906667 40.490667 68.906667 69.845333 104.064 93.184 41.258667 27.648 85.504 45.013333 130.133333 49.28a225.493333 225.493333 0 0 0 148.864-36.992 229.973333 229.973333 0 0 0 85.248-106.666667A231.978667 231.978667 0 0 0 981.333333 790.613333v0.170667z m-105.685333 42.496a126.762667 126.762667 0 0 1-58.666667 74.922666c-24.746667 14.08-54.613333 19.2-83.2 14.336-33.962667-5.376-67.370667-22.954667-102.101333-51.498666-20.48-16.682667-40.021333-36.224-63.658667-62.634667l0.896 26.282667c38.954667-50.176 66.986667-92.672 88.746667-137.088 24.277333-49.92 37.973333-96.512 39.424-142.805334 0.938667-34.773333-5.888-68.266667-20.693333-97.024a177.92 177.92 0 0 0-98.261334-85.973333 195.285333 195.285333 0 0 0-120.448-3.84 180.394667 180.394667 0 0 0-94.890666 65.450667 185.258667 185.258667 0 0 0-34.986667 95.786666c-3.712 43.861333 5.376 89.472 24.917333 137.770667 23.168 56.149333 56.832 109.866667 102.613334 167.381333l0.426666-26.026666c-16.768 19.754667-35.413333 38.570667-55.722666 56.32-34.645333 29.866667-67.498667 48.853333-101.290667 56.32a128.682667 128.682667 0 0 1-86.997333-10.24 126.464 126.464 0 0 1-63.829334-79.530667 134.314667 134.314667 0 0 1 2.901334-77.397333c4.992-14.933333 10.069333-27.008 21.930666-53.546667l1.024-2.218667 4.992-11.264A11419.434667 11419.434667 0 0 1 403.328 217.344l0.298667-0.597333c13.738667-27.221333 20.096-39.594667 28.245333-54.485334 10.88-19.754667 20.48-32.554667 32-41.514666a75.605333 75.605333 0 0 1 48.426667-16.554667c18.346667-0.213333 36.266667 6.442667 50.133333 18.346667 12.373333 10.453333 21.802667 24.234667 34.474667 48.298666 18.176 34.773333 34.005333 66.176 63.018666 124.544l5.205334 10.410667 0.554666 1.152a11192.149333 11192.149333 0 0 1 189.226667 401.322667l1.109333 2.517333c11.093333 25.173333 15.701333 36.693333 19.626667 50.858667a133.418667 133.418667 0 0 1 0 71.637333z m-347.733333-74.069334c-8.533333-10.24-15.445333-19.754667-28.757334-39.210666l-1.792-2.56-1.024-1.493334a528 528 0 0 1-44.672-79.573333c-11.008-25.173333-17.962667-47.957333-20.736-69.973333-2.346667-20.352-1.066667-37.930667 4.522667-52.565334 5.248-14.506667 15.274667-27.093333 28.032-35.370666 31.914667-20.992 77.44-18.261333 105.514667 6.4 13.44 11.690667 22.229333 29.568 24.448 49.066666 2.816 24.96-1.834667 52.138667-13.098667 82.688-17.237333 46.165333-44.032 90.453333-84.266667 143.317334l16.213334 12.416 15.616-13.141334z" fill="#FD5C63" p-id="4361"></path></svg>